<svg width="7" height="7" viewBox="0 0 7 7" fill="none" xmlns="http://www.w3.org/2000/svg">
<path d="M3.08902 0.732958C3.35257 0.626103 3.64739 0.626103 3.91094 0.732958L6.09786 1.61962C6.19205 1.65778 6.27272 1.72319 6.32951 1.80747C6.38631 1.89176 6.41665 1.99108 6.41665 2.09271V4.90817C6.41659 5.00975 6.38622 5.10901 6.32943 5.19323C6.27264 5.27746 6.19201 5.34282 6.09786 5.38096L3.91094 6.26762C3.64739 6.37448 3.35257 6.37448 3.08902 6.26762L0.902105 5.38096C0.807906 5.3428 0.727243 5.27739 0.670448 5.19311C0.613653 5.10883 0.583312 5.00951 0.583313 4.90787V2.093C0.583312 1.99137 0.613653 1.89205 0.670448 1.80776C0.727243 1.72348 0.807906 1.65807 0.902105 1.61992L3.08902 0.732958ZM3.74644 1.13837C3.58837 1.07432 3.41158 1.07432 3.25352 1.13837L2.69498 1.365L4.89036 2.21871L5.66881 1.91829L3.74644 1.13837ZM4.28485 2.45233L2.10435 1.60417L1.33873 1.9145L3.50027 2.75508L4.28485 2.45233ZM1.02081 4.90817C1.02085 4.92264 1.0252 4.93678 1.0333 4.94878C1.0414 4.96078 1.0529 4.9701 1.06631 4.97554L3.25352 5.86221C3.26266 5.8661 3.2719 5.8696 3.28123 5.87271V3.1395L1.02081 2.26042V4.90817ZM3.74644 5.86221L5.93365 4.97554C5.94711 4.97008 5.95863 4.96072 5.96674 4.94866C5.97485 4.93661 5.97917 4.9224 5.97915 4.90787V2.26742L3.71873 3.14008V5.873L3.74644 5.86221Z" fill="black"/>
</svg>
