<svg width="40" height="40" viewBox="0 0 40 40" fill="none" xmlns="http://www.w3.org/2000/svg">
<rect width="40" height="40" rx="5" fill="#13873F" fill-opacity="0.2"/>
<path d="M7.85376 19.7713V22.6835C7.85358 23.4483 8.00407 24.2057 8.29662 24.9123C8.58918 25.619 9.01808 26.2611 9.55883 26.802C10.0996 27.3428 10.7416 27.7719 11.4482 28.0646C12.1547 28.3573 12.9121 28.508 13.6769 28.508H31.1463M7.85376 12.492H25.3231C26.0881 12.4918 26.8455 12.6424 27.5523 12.935C28.259 13.2276 28.9012 13.6567 29.4421 14.1976C29.983 14.7384 30.412 15.3806 30.7046 16.0874C30.9973 16.7941 31.1478 17.5516 31.1476 18.3165V21.2274" stroke="#13873F" stroke-width="2" stroke-linecap="round" stroke-linejoin="round"/>
<path d="M26.7792 24.1396L31.1475 28.5066L26.7792 32.875M12.2207 16.8604L7.85229 12.492L12.2207 8.125" stroke="#13873F" stroke-width="2" stroke-linecap="round" stroke-linejoin="round"/>
</svg>
