<svg width="40" height="40" viewBox="0 0 40 40" fill="none" xmlns="http://www.w3.org/2000/svg">
<rect width="40" height="40" rx="5" fill="#1E6FD9" fill-opacity="0.2"/>
<path fill-rule="evenodd" clip-rule="evenodd" d="M24.6429 16.1539C25.0218 16.1539 25.3851 15.9918 25.653 15.7033C25.921 15.4147 26.0715 15.0234 26.0715 14.6154C26.0715 14.2074 25.921 13.8161 25.653 13.5275C25.3851 13.239 25.0218 13.0769 24.6429 13.0769C24.264 13.0769 23.9007 13.239 23.6327 13.5275C23.3648 13.8161 23.2143 14.2074 23.2143 14.6154C23.2143 15.0234 23.3648 15.4147 23.6327 15.7033C23.9007 15.9918 24.264 16.1539 24.6429 16.1539ZM24.6429 18.4615C25.5901 18.4615 26.4985 18.0563 27.1683 17.335C27.838 16.6137 28.2143 15.6355 28.2143 14.6154C28.2143 13.5953 27.838 12.617 27.1683 11.8958C26.4985 11.1745 25.5901 10.7692 24.6429 10.7692C23.6957 10.7692 22.7873 11.1745 22.1175 11.8958C21.4477 12.617 21.0715 13.5953 21.0715 14.6154C21.0715 15.6355 21.4477 16.6137 22.1175 17.335C22.7873 18.0563 23.6957 18.4615 24.6429 18.4615ZM21.4286 27.6923V24.6154C21.4286 23.4933 21.0147 22.4172 20.278 21.6238C19.5412 20.8304 18.542 20.3846 17.5 20.3846H11.7857C10.7438 20.3846 9.74458 20.8304 9.00783 21.6238C8.27108 22.4172 7.85718 23.4933 7.85718 24.6154V27.6923H10V24.6154C10 23.5539 10.8 22.6923 11.7857 22.6923H17.5C18.4857 22.6923 19.2857 23.5539 19.2857 24.6154V27.6923H21.4286ZM31.4286 24.6154V27.6923H29.2857V24.6154C29.2857 23.5539 28.4858 22.6923 27.5 22.6923H23.9286V20.3846H27.5C28.542 20.3846 29.5412 20.8304 30.278 21.6238C31.0147 22.4172 31.4286 23.4933 31.4286 24.6154ZM16.0715 14.6154C16.0715 15.0234 15.921 15.4147 15.653 15.7033C15.3851 15.9918 15.0218 16.1539 14.6429 16.1539C14.264 16.1539 13.9006 15.9918 13.6327 15.7033C13.3648 15.4147 13.2143 15.0234 13.2143 14.6154C13.2143 14.2074 13.3648 13.8161 13.6327 13.5275C13.9006 13.239 14.264 13.0769 14.6429 13.0769C15.0218 13.0769 15.3851 13.239 15.653 13.5275C15.921 13.8161 16.0715 14.2074 16.0715 14.6154ZM18.2143 14.6154C18.2143 15.6355 17.838 16.6137 17.1683 17.335C16.4985 18.0563 15.5901 18.4615 14.6429 18.4615C13.6957 18.4615 12.7873 18.0563 12.1175 17.335C11.4477 16.6137 11.0715 15.6355 11.0715 14.6154C11.0715 13.5953 11.4477 12.617 12.1175 11.8958C12.7873 11.1745 13.6957 10.7692 14.6429 10.7692C15.5901 10.7692 16.4985 11.1745 17.1683 11.8958C17.838 12.617 18.2143 13.5953 18.2143 14.6154Z" fill="#1E6FD9"/>
</svg>
