<svg width="7" height="7" viewBox="0 0 7 7" fill="none" xmlns="http://www.w3.org/2000/svg">
<path d="M5.73877 2.35156H1.26123C1.25918 2.35156 1.25781 2.35293 1.25781 2.35498V2.97842C1.25781 3.38721 1.59277 3.71875 2.00498 3.71875C2.2832 3.71875 2.52588 3.56836 2.65508 3.34482C2.6749 3.30996 2.7125 3.28809 2.75283 3.28809C2.79316 3.28809 2.83008 3.30996 2.85059 3.34482C2.9791 3.56836 3.22178 3.71875 3.5 3.71875C3.77891 3.71875 4.02227 3.56768 4.1501 3.34346C4.16992 3.30928 4.20615 3.28809 4.24512 3.28809H4.24922C4.28887 3.28809 4.32441 3.30928 4.34424 3.34346C4.47275 3.56768 4.71611 3.71875 4.99502 3.71875C5.40723 3.71875 5.74219 3.38721 5.74219 2.97842V2.35498C5.74219 2.35293 5.74082 2.35156 5.73877 2.35156Z" fill="black" fill-opacity="0.15"/>
<path d="M6.0293 1.86006V0.984375C6.0293 0.863379 5.93155 0.765625 5.81055 0.765625H1.18946C1.06846 0.765625 0.970707 0.863379 0.970707 0.984375V1.86006C0.856547 1.86689 0.765629 1.96191 0.765629 2.07812V2.97842C0.765191 3.14388 0.798694 3.30767 0.864067 3.45967C0.893461 3.52939 0.929692 3.59502 0.970707 3.65723V6.01562C0.970707 6.13594 1.06846 6.23438 1.18946 6.23438H5.81055C5.93155 6.23438 6.0293 6.13662 6.0293 6.01562V3.65723C6.07096 3.59486 6.10667 3.52872 6.13594 3.45967C6.20088 3.30723 6.23438 3.14522 6.23438 2.97842V2.07812C6.23438 1.96191 6.14346 1.86689 6.0293 1.86006ZM1.46289 1.25781H5.53711V1.85938H1.46289V1.25781ZM3.9375 5.74287H3.0625V5.03125H3.9375V5.74287ZM5.53985 5.74287H4.375V4.8125C4.375 4.6915 4.27725 4.59375 4.15625 4.59375H2.84375C2.72276 4.59375 2.625 4.6915 2.625 4.8125V5.74287H1.46289V4.08721C1.48272 4.09678 1.50323 4.10635 1.52442 4.11455C1.67686 4.17881 1.83887 4.21094 2.00567 4.21094C2.17247 4.21094 2.33379 4.17881 2.48692 4.11455C2.58125 4.0749 2.67012 4.02432 2.75147 3.96348C2.75284 3.96279 2.7542 3.96279 2.75557 3.96348C2.83717 4.02458 2.92603 4.07532 3.02012 4.11455C3.17256 4.17881 3.33457 4.21094 3.50137 4.21094C3.66817 4.21094 3.8295 4.17881 3.98262 4.11455C4.07696 4.0749 4.16582 4.02432 4.24717 3.96348C4.24854 3.96279 4.24991 3.96279 4.25127 3.96348C4.33287 4.02458 4.42174 4.07532 4.51582 4.11455C4.66827 4.17881 4.83028 4.21094 4.99707 4.21094C5.16387 4.21094 5.3252 4.17881 5.47832 4.11455C5.49883 4.10566 5.51934 4.09678 5.53985 4.08721V5.74287ZM5.74219 2.97842C5.74219 3.38721 5.40723 3.71875 4.99502 3.71875C4.71612 3.71875 4.47276 3.56768 4.34424 3.34346C4.32442 3.30928 4.28887 3.28809 4.24922 3.28809H4.24512C4.20616 3.28809 4.16993 3.30928 4.1501 3.34346C4.08452 3.45783 3.98982 3.55281 3.87564 3.61872C3.76145 3.68464 3.63185 3.71915 3.5 3.71875C3.22178 3.71875 2.97911 3.56836 2.85059 3.34482C2.83008 3.30996 2.79317 3.28809 2.75284 3.28809C2.7125 3.28809 2.67491 3.30996 2.65508 3.34482C2.58912 3.45876 2.4943 3.55331 2.38017 3.61896C2.26605 3.6846 2.13664 3.71902 2.00498 3.71875C1.59278 3.71875 1.25782 3.38721 1.25782 2.97842V2.35498C1.25782 2.35293 1.25918 2.35156 1.26123 2.35156H5.73877C5.74082 2.35156 5.74219 2.35293 5.74219 2.35498V2.97842Z" fill="black"/>
</svg>
