<svg width="7" height="7" viewBox="0 0 7 7" fill="none" xmlns="http://www.w3.org/2000/svg">
<path d="M4.37502 1.16667C4.0656 1.16667 3.76885 1.28959 3.55006 1.50838C3.33127 1.72717 3.20835 2.02392 3.20835 2.33334C3.20835 2.64276 3.33127 2.9395 3.55006 3.1583C3.76885 3.37709 4.0656 3.50001 4.37502 3.50001C4.68444 3.50001 4.98119 3.37709 5.19998 3.1583C5.41877 2.9395 5.54169 2.64276 5.54169 2.33334C5.54169 2.02392 5.41877 1.72717 5.19998 1.50838C4.98119 1.28959 4.68444 1.16667 4.37502 1.16667ZM4.37502 1.72084C4.45545 1.72084 4.5351 1.73668 4.60941 1.76746C4.68373 1.79824 4.75125 1.84336 4.80812 1.90024C4.865 1.95711 4.91012 2.02463 4.9409 2.09894C4.97168 2.17326 4.98752 2.2529 4.98752 2.33334C4.98752 2.41377 4.97168 2.49342 4.9409 2.56773C4.91012 2.64204 4.865 2.70957 4.80812 2.76644C4.75125 2.82332 4.68373 2.86843 4.60941 2.89921C4.5351 2.93 4.45545 2.94584 4.37502 2.94584C4.29459 2.94584 4.21494 2.93 4.14063 2.89921C4.06631 2.86843 3.99879 2.82332 3.94192 2.76644C3.88504 2.70957 3.83992 2.64204 3.80914 2.56773C3.77836 2.49342 3.76252 2.41377 3.76252 2.33334C3.76252 2.17089 3.82705 2.0151 3.94192 1.90024C4.05678 1.78537 4.21258 1.72084 4.37502 1.72084ZM1.16669 2.04167V2.91667H0.291687V3.50001H1.16669V4.37501H1.75002V3.50001H2.62502V2.91667H1.75002V2.04167H1.16669ZM4.37502 3.79167C3.59627 3.79167 2.04169 4.17959 2.04169 4.95834V5.83334H6.70835V4.95834C6.70835 4.17959 5.15377 3.79167 4.37502 3.79167ZM4.37502 4.34584C5.24127 4.34584 6.15419 4.77167 6.15419 4.95834V5.27917H2.59585V4.95834C2.59585 4.77167 3.50002 4.34584 4.37502 4.34584Z" fill="black"/>
</svg>
