<svg width="7" height="7" viewBox="0 0 7 7" fill="none" xmlns="http://www.w3.org/2000/svg">
<path d="M3.20831 3.79166H1.74998C1.66734 3.79166 1.59812 3.76366 1.54231 3.70766C1.48651 3.65166 1.45851 3.58244 1.45831 3.5C1.45812 3.41755 1.48612 3.34833 1.54231 3.29233C1.59851 3.23633 1.66773 3.20833 1.74998 3.20833H3.20831V1.75C3.20831 1.66736 3.23631 1.59813 3.29231 1.54233C3.34831 1.48652 3.41754 1.45852 3.49998 1.45833C3.58243 1.45813 3.65174 1.48613 3.70794 1.54233C3.76413 1.59852 3.79204 1.66775 3.79165 1.75V3.20833H5.24998C5.33262 3.20833 5.40194 3.23633 5.45794 3.29233C5.51394 3.34833 5.54184 3.41755 5.54165 3.5C5.54145 3.58244 5.51345 3.65176 5.45765 3.70795C5.40184 3.76415 5.33262 3.79205 5.24998 3.79166H3.79165V5.25C3.79165 5.33264 3.76365 5.40195 3.70765 5.45795C3.65165 5.51395 3.58243 5.54186 3.49998 5.54166C3.41754 5.54147 3.34831 5.51347 3.29231 5.45766C3.23631 5.40186 3.20831 5.33264 3.20831 5.25V3.79166Z" fill="black"/>
</svg>
