<svg width="40" height="40" viewBox="0 0 40 40" fill="none" xmlns="http://www.w3.org/2000/svg">
<rect width="40" height="40" rx="5" fill="#791387" fill-opacity="0.2"/>
<path d="M33.7306 31.1472L30.0764 27.4931L28.25 25.6667L22.7617 31.155L24.5894 32.9814L28.25 29.3208L31.9029 32.9736L33.7306 31.1472ZM14.0417 24.375H19.2084V26.9583H14.0417V24.375Z" fill="#791387"/>
<path d="M32.4166 10.75H6.58331V13.3333H9.16665V27.5417C9.16767 28.2265 9.44017 28.883 9.92442 29.3672C10.4087 29.8515 11.0652 30.124 11.75 30.125H18.2083L27.25 21.0833L29.8333 23.6667V13.3333H32.4166V10.75ZM11.75 13.3333H27.25V17.2083L16.9166 27.5417H11.75V13.3333Z" fill="#791387"/>
</svg>
