<svg width="7" height="7" viewBox="0 0 7 7" fill="none" xmlns="http://www.w3.org/2000/svg">
<path d="M0.729187 2.77083H6.27085M0.729187 2.77083V5.83333C0.729187 5.91068 0.759916 5.98487 0.814614 6.03957C0.869312 6.09427 0.943499 6.12499 1.02085 6.12499H5.97919C6.05654 6.12499 6.13073 6.09427 6.18543 6.03957C6.24012 5.98487 6.27085 5.91068 6.27085 5.83333V2.77083M0.729187 2.77083V1.31249C0.729187 1.23514 0.759916 1.16095 0.814614 1.10626C0.869312 1.05156 0.943499 1.02083 1.02085 1.02083H5.97919C6.05654 1.02083 6.13073 1.05156 6.18543 1.10626C6.24012 1.16095 6.27085 1.23514 6.27085 1.31249V2.77083" stroke="black" stroke-width="0.5" stroke-linejoin="round"/>
<path d="M2.33335 0.583328V1.74999M4.66669 0.583328V1.74999M4.08335 4.95833H4.95835M2.04169 4.95833H2.91669M4.08335 3.79166H4.95835M2.04169 3.79166H2.91669" stroke="black" stroke-width="0.5" stroke-linecap="round" stroke-linejoin="round"/>
</svg>
