<svg width="7" height="7" viewBox="0 0 7 7" fill="none" xmlns="http://www.w3.org/2000/svg">
<path d="M1.0296 3.34541V3.96316C1.02956 4.1254 1.06149 4.28605 1.12354 4.43595C1.1856 4.58584 1.27658 4.72205 1.39128 4.83678C1.50599 4.95151 1.64217 5.04252 1.79205 5.10461C1.94193 5.1667 2.10258 5.19866 2.26481 5.19866H5.97043M1.0296 1.80133H4.73523C4.89749 1.80129 5.05816 1.83322 5.20808 1.8953C5.35799 1.95738 5.49421 2.04838 5.60894 2.16311C5.72368 2.27785 5.81468 2.41406 5.87676 2.56398C5.93883 2.71389 5.97077 2.87457 5.97073 3.03683V3.65429" stroke="black" stroke-width="0.5" stroke-linecap="round" stroke-linejoin="round"/>
<path d="M5.04409 4.27204L5.97071 5.19837L5.04409 6.125M1.95592 2.72796L1.0293 1.80133L1.95592 0.875" stroke="black" stroke-width="0.5" stroke-linecap="round" stroke-linejoin="round"/>
</svg>
