<svg width="17" height="17" viewBox="0 0 17 17" fill="none" xmlns="http://www.w3.org/2000/svg">
<path d="M6.36369 14.6363H4.03327C3.17477 14.6363 2.47919 13.9407 2.47919 13.0822V8.51063C2.47971 8.17759 2.55139 7.8485 2.68944 7.54542C2.82748 7.24234 3.02869 6.97225 3.2796 6.75325L7.48002 3.09471C7.76287 2.84865 8.12513 2.71313 8.50002 2.71313C8.87492 2.71313 9.23717 2.84865 9.52002 3.09471L13.7204 6.75396C13.9713 6.97288 14.1724 7.24285 14.3105 7.54581C14.4485 7.84876 14.5202 8.17771 14.5209 8.51063V13.0822C14.5209 13.4943 14.3572 13.8894 14.0659 14.1809C13.7746 14.4723 13.3795 14.6361 12.9675 14.6363H10.8304V9.97475C10.8304 9.33158 10.3091 8.80954 9.66523 8.80954H7.5296C6.88573 8.80954 6.3644 9.33158 6.3644 9.97475L6.36369 14.6363ZM6.36369 14.6363H10.8311" stroke="black" stroke-linejoin="round"/>
</svg>
