<svg width="7" height="7" viewBox="0 0 7 7" fill="none" xmlns="http://www.w3.org/2000/svg">
<path d="M3.49998 0.583328C1.8891 0.583328 0.583313 1.88912 0.583313 3.5C0.583313 5.11087 1.8891 6.41666 3.49998 6.41666C5.11085 6.41666 6.41665 5.11087 6.41665 3.5C6.41665 1.88912 5.11085 0.583328 3.49998 0.583328Z" stroke="black" stroke-width="0.5" stroke-linecap="round" stroke-linejoin="round"/>
<path d="M1.24567 5.35092C1.24567 5.35092 1.89579 4.52083 3.49996 4.52083C5.10412 4.52083 5.75454 5.35092 5.75454 5.35092M3.49996 3.5C3.73202 3.5 3.95458 3.40781 4.11868 3.24372C4.28277 3.07962 4.37496 2.85706 4.37496 2.625C4.37496 2.39294 4.28277 2.17038 4.11868 2.00628C3.95458 1.84219 3.73202 1.75 3.49996 1.75C3.26789 1.75 3.04533 1.84219 2.88124 2.00628C2.71715 2.17038 2.62496 2.39294 2.62496 2.625C2.62496 2.85706 2.71715 3.07962 2.88124 3.24372C3.04533 3.40781 3.26789 3.5 3.49996 3.5Z" stroke="black" stroke-width="0.5" stroke-linecap="round" stroke-linejoin="round"/>
</svg>
