<svg width="7" height="7" viewBox="0 0 7 7" fill="none" xmlns="http://www.w3.org/2000/svg">
<path d="M2.625 3.20838L3.20838 3.79162L4.375 2.625" stroke="#1E1E1E" stroke-width="0.5" stroke-linecap="round" stroke-linejoin="round"/>
<path d="M3.49997 6.125L3.75659 6.01412C4.29466 5.78322 4.75929 5.40951 5.10016 4.93345C5.44104 4.45739 5.64516 3.89714 5.69041 3.31338L5.81585 1.70338C5.8179 1.6367 5.79699 1.57135 5.75662 1.51824C5.71626 1.46513 5.65888 1.4275 5.59409 1.41162L3.49997 0.875L1.40585 1.4C1.34109 1.41587 1.28373 1.45349 1.24337 1.50657C1.203 1.55965 1.18208 1.62497 1.18409 1.69162L1.30953 3.30162C1.35477 3.88541 1.55887 4.44569 1.89975 4.92177C2.24062 5.39786 2.70527 5.77159 3.24335 6.0025L3.49997 6.125Z" stroke="#1E1E1E" stroke-width="0.5" stroke-linecap="round" stroke-linejoin="round"/>
</svg>
