<svg width="40" height="40" viewBox="0 0 40 40" fill="none" xmlns="http://www.w3.org/2000/svg">
<rect width="40" height="40" rx="5" fill="#D98600" fill-opacity="0.2"/>
<path d="M15.375 19.1252L18.1252 21.8748L23.625 16.375" stroke="#D98600" stroke-width="2" stroke-linecap="round" stroke-linejoin="round"/>
<path d="M19.5 32.875L20.7098 32.3523C23.2464 31.2638 25.4368 29.502 27.0438 27.2577C28.6507 25.0134 29.613 22.3722 29.8264 19.6202L30.4177 12.0302C30.4274 11.7159 30.3288 11.4078 30.1385 11.1574C29.9482 10.9071 29.6777 10.7296 29.3723 10.6548L19.5 8.125L9.62773 10.6C9.32241 10.6748 9.05201 10.8522 8.86173 11.1024C8.67144 11.3526 8.5728 11.6606 8.58229 11.9748L9.17365 19.5648C9.38689 22.3169 10.3491 24.9582 11.9561 27.2026C13.5631 29.447 15.7535 31.2089 18.2902 32.2975L19.5 32.875Z" stroke="#D98600" stroke-width="2" stroke-linecap="round" stroke-linejoin="round"/>
</svg>
